<?xml version="1.0" encoding="UTF-8"?> <svg xmlns="http://www.w3.org/2000/svg" width="176" height="179" viewBox="0 0 176 179" fill="none"><rect y="50" width="38.8909" height="38.8909" rx="4" transform="rotate(-45 0 50)" fill="#444444"></rect><path d="M27.2084 57.2499H29.7917V55.9583H31.0834C31.4493 55.9583 31.7561 55.8345 32.0037 55.5869C32.2512 55.3393 32.375 55.0326 32.375 54.6666V50.7916C32.375 50.4256 32.2512 50.1188 32.0037 49.8713C31.7561 49.6237 31.4493 49.4999 31.0834 49.4999H27.2084V48.2083H32.375V45.6249H29.7917V44.3333H27.2084V45.6249H25.9167C25.5507 45.6249 25.2439 45.7487 24.9964 45.9963C24.7488 46.2438 24.625 46.5506 24.625 46.9166V50.7916C24.625 51.1576 24.7488 51.4643 24.9964 51.7119C25.2439 51.9595 25.5507 52.0833 25.9167 52.0833H29.7917V53.3749H24.625V55.9583H27.2084V57.2499ZM20.75 62.4166C20.0396 62.4166 19.4314 62.1636 18.9255 61.6577C18.4196 61.1518 18.1667 60.5437 18.1667 59.8333V39.1666C18.1667 38.4562 18.4196 37.848 18.9255 37.3421C19.4314 36.8362 20.0396 36.5833 20.75 36.5833H31.0834L38.8334 44.3333V59.8333C38.8334 60.5437 38.5804 61.1518 38.0745 61.6577C37.5686 62.1636 36.9604 62.4166 36.25 62.4166H20.75Z" fill="white"></path><rect x="66" y="37" width="38.8909" height="38.8909" rx="4" transform="rotate(-45 66 37)" fill="#444444"></rect><path d="M85.8939 46.9138V39.848L95.315 37.4927L85.8939 35.1374V28.0715L108.269 37.4927L85.8939 46.9138Z" fill="white"></path><rect x="121" y="28" width="38.8909" height="38.8909" rx="4" transform="rotate(-45 121 28)" fill="#444444"></rect><path d="M149 27.5C150.1 27.5 151.042 27.1083 151.825 26.325C152.608 25.5417 153 24.6 153 23.5V20.5H145V23.5C145 24.6 145.392 25.5417 146.175 26.325C146.958 27.1083 147.9 27.5 149 27.5ZM141 38.5V36.5H143V33.5C143 32.4833 143.237 31.5292 143.713 30.6375C144.188 29.7458 144.85 29.0333 145.7 28.5C144.85 27.9667 144.188 27.2542 143.713 26.3625C143.237 25.4708 143 24.5167 143 23.5V20.5H141V18.5H157V20.5H155V23.5C155 24.5167 154.762 25.4708 154.288 26.3625C153.812 27.2542 153.15 27.9667 152.3 28.5C153.15 29.0333 153.812 29.7458 154.288 30.6375C154.762 31.5292 155 32.4833 155 33.5V36.5H157V38.5H141Z" fill="white"></path><rect x="98" y="151" width="38.8909" height="38.8909" rx="4" transform="rotate(-45 98 151)" fill="#444444"></rect><path d="M129.333 151.5H131.667V150.3H132.833C133.164 150.3 133.441 150.185 133.665 149.955C133.888 149.725 134 149.44 134 149.1V145.5C134 145.16 133.888 144.875 133.665 144.645C133.441 144.415 133.164 144.3 132.833 144.3H129.333V143.1H134V140.7H131.667V139.5H129.333V140.7H128.167C127.836 140.7 127.559 140.815 127.335 141.045C127.112 141.275 127 141.56 127 141.9V145.5C127 145.84 127.112 146.125 127.335 146.355C127.559 146.585 127.836 146.7 128.167 146.7H131.667V147.9H127V150.3H129.333V151.5Z" fill="white"></path><path d="M121 159.525V150.5H122.6C122.717 150.5 122.833 150.513 122.95 150.538C123.067 150.563 123.183 150.592 123.3 150.625L130.225 153.2C130.458 153.283 130.646 153.433 130.788 153.65C130.929 153.867 131 154.092 131 154.325C131 154.675 130.879 154.958 130.637 155.175C130.396 155.392 130.117 155.5 129.8 155.5H127.175C127.092 155.5 127.029 155.496 126.988 155.488C126.946 155.479 126.892 155.458 126.825 155.425L125.225 154.8L124.9 155.775L126.825 156.45C126.858 156.467 126.908 156.479 126.975 156.488C127.042 156.496 127.1 156.5 127.15 156.5H134C134.533 156.5 135 156.692 135.4 157.075C135.8 157.458 136 157.933 136 158.5L128.025 161.5L121 159.525ZM115 161.5V150.5H119V161.5H115Z" fill="white"></path><line x1="97.6464" y1="81.1464" x2="136.646" y2="42.1464" stroke="black"></line><line x1="73.6464" y1="59.1464" x2="81.6464" y2="51.1464" stroke="black"></line><line x1="88.3536" y1="112.146" x2="113.354" y2="137.146" stroke="black"></line><path d="M29.182 93.9749C27.8151 92.608 27.8151 90.392 29.182 89.0251L64.5251 53.682C65.892 52.3152 68.108 52.3152 69.4749 53.682L104.818 89.0251C106.185 90.392 106.185 92.608 104.818 93.9749L69.4749 129.318C68.108 130.685 65.892 130.685 64.5251 129.318L29.182 93.9749Z" fill="#5C7A1D" stroke="white"></path><g clip-path="url(#clip0_428_81)"><path d="M69.1916 112.808L67.1729 111.215L66.7479 111.356C66.6062 111.403 66.3937 111.451 66.1104 111.498L65.1187 113.906L60.8687 112.773L61.2229 110.223L60.4791 109.479L57.8937 109.798L56.7604 105.548L59.1687 104.556C59.2159 104.367 59.2573 104.184 59.2927 104.007C59.3281 103.83 59.3812 103.659 59.4521 103.494L57.8583 101.475L60.975 98.3583L62.9937 99.9521L63.2062 99.8812L63.4187 99.8104C63.4896 99.7868 63.584 99.7632 63.7021 99.7396L64.0562 99.6687L65.0479 97.2604L69.2979 98.3937L68.9437 100.944L69.7229 101.723L72.9812 89.4687L74.1854 93.8604L74.9291 93.7541L72.5916 102.608L73.4062 105.619L70.9979 106.61C70.9507 106.799 70.9094 106.982 70.8739 107.159C70.8385 107.336 70.7854 107.508 70.7146 107.673L72.3083 109.692L69.1916 112.808ZM62.9583 103.458C62.368 104.049 62.0729 104.757 62.0729 105.583C62.0729 106.41 62.368 107.118 62.9583 107.708C63.5486 108.299 64.2569 108.594 65.0833 108.594C65.9097 108.594 66.618 108.299 67.2083 107.708C67.7986 107.118 68.0937 106.41 68.0937 105.583C68.0937 104.757 67.7986 104.049 67.2083 103.458C66.618 102.868 65.9097 102.573 65.0833 102.573C64.2569 102.573 63.5486 102.868 62.9583 103.458ZM60.6916 90.1416L58.6729 88.5479C58.5784 88.5479 58.484 88.5715 58.3896 88.6187C58.2951 88.666 58.2007 88.6896 58.1062 88.6896L65.8979 96.4812L64.4458 96.0916L63.525 98.3583L56.3 91.1333L52.4041 90.0708L52.7229 87.5562L51.9791 86.8125L49.3937 87.1312L48.2604 82.8812L50.6687 81.8896C50.7159 81.7007 50.7573 81.5177 50.7927 81.3406C50.8281 81.1635 50.8812 80.9923 50.9521 80.8271L49.3583 78.8083L52.475 75.6916L54.4937 77.2854L54.9187 77.1437C55.0604 77.0965 55.2729 77.0493 55.5562 77.0021L56.5479 74.5937L60.7979 75.7271L60.4437 78.2771L61.1875 79.0208L63.7729 78.7021L64.9062 82.9521L62.4979 83.9437C62.4507 84.1326 62.4094 84.3156 62.3739 84.4927C62.3385 84.6698 62.2854 84.841 62.2146 85.0062L63.8083 87.025L60.6916 90.1416ZM54.4583 80.7916C53.868 81.3819 53.5729 82.0903 53.5729 82.9166C53.5729 83.743 53.868 84.4514 54.4583 85.0416C55.0486 85.6319 55.7569 85.9271 56.5833 85.9271C57.4097 85.9271 58.118 85.6319 58.7083 85.0416C59.2986 84.4514 59.5937 83.743 59.5937 82.9166C59.5937 82.0903 59.2986 81.3819 58.7083 80.7916C58.118 80.2014 57.4097 79.9062 56.5833 79.9062C55.7569 79.9062 55.0486 80.2014 54.4583 80.7916ZM86.1916 95.8083L84.1729 94.2146L83.7479 94.3562C83.6062 94.4035 83.3937 94.4507 83.1104 94.4979L82.1187 96.9062L77.8687 95.7729L78.2229 93.2229L77.4791 92.4791L74.9291 92.8333L73.7604 88.5479L76.1687 87.5562C76.1923 87.4382 76.21 87.3614 76.2219 87.326L76.4875 86.5291L63.4541 88.7958L65.1541 87.0958L64.0208 85.6791L75.7437 83.5896L77.975 81.3583L79.9937 82.9521L80.2062 82.8812L80.4187 82.8104C80.4896 82.7868 80.584 82.7632 80.7021 82.7396L81.0562 82.6687L82.0479 80.2604L86.2979 81.3937L85.9437 83.9437L86.6875 84.6875L89.2729 84.3687L90.4062 88.6187L87.9979 89.6104C87.9507 89.7993 87.9094 89.9823 87.8739 90.1594C87.8385 90.3364 87.7854 90.5076 87.7146 90.6729L89.3083 92.6916L86.1916 95.8083ZM79.9583 86.4583C79.368 87.0486 79.0729 87.7569 79.0729 88.5833C79.0729 89.4097 79.368 90.118 79.9583 90.7083C80.5486 91.2986 81.2569 91.5937 82.0833 91.5937C82.9097 91.5937 83.618 91.2986 84.2083 90.7083C84.7986 90.118 85.0937 89.4097 85.0937 88.5833C85.0937 87.7569 84.7986 87.0486 84.2083 86.4583C83.618 85.868 82.9097 85.5729 82.0833 85.5729C81.2569 85.5729 80.5486 85.868 79.9583 86.4583Z" fill="white"></path></g><defs><clipPath id="clip0_428_81"><rect width="48.0833" height="48.0833" fill="white" transform="translate(32.5 90) rotate(-45)"></rect></clipPath></defs></svg> 