<?xml version="1.0" encoding="UTF-8"?> <svg xmlns="http://www.w3.org/2000/svg" width="320" height="83" viewBox="0 0 320 83" fill="none"><line x1="-4.37114e-08" y1="42" x2="320" y2="42" stroke="white"></line><path d="M122.182 43.9749C120.815 42.608 120.815 40.392 122.182 39.0251L157.525 3.68199C158.892 2.31515 161.108 2.31516 162.475 3.68199L197.818 39.0251C199.185 40.392 199.185 42.608 197.818 43.9749L162.475 79.318C161.108 80.6848 158.892 80.6848 157.525 79.318L122.182 43.9749Z" fill="#5C7A1D" stroke="white"></path><g clip-path="url(#clip0_400_80)"><path d="M162.192 62.8083L160.173 61.2146L159.748 61.3562C159.606 61.4035 159.394 61.4507 159.11 61.4979L158.119 63.9062L153.869 62.7729L154.223 60.2229L153.479 59.4791L150.894 59.7979L149.76 55.5479L152.169 54.5562C152.216 54.3673 152.257 54.1844 152.293 54.0073C152.328 53.8302 152.381 53.659 152.452 53.4937L150.858 51.475L153.975 48.3583L155.994 49.9521L156.206 49.8812L156.419 49.8104C156.49 49.7868 156.584 49.7632 156.702 49.7396L157.056 49.6687L158.048 47.2604L162.298 48.3937L161.944 50.9437L162.723 51.7229L165.981 39.4687L167.185 43.8604L167.929 43.7541L165.592 52.6083L166.406 55.6187L163.998 56.6104C163.951 56.7993 163.909 56.9823 163.874 57.1594C163.839 57.3364 163.785 57.5076 163.715 57.6729L165.308 59.6916L162.192 62.8083ZM155.958 53.4583C155.368 54.0486 155.073 54.7569 155.073 55.5833C155.073 56.4097 155.368 57.118 155.958 57.7083C156.549 58.2986 157.257 58.5937 158.083 58.5937C158.91 58.5937 159.618 58.2986 160.208 57.7083C160.799 57.118 161.094 56.4097 161.094 55.5833C161.094 54.7569 160.799 54.0486 160.208 53.4583C159.618 52.868 158.91 52.5729 158.083 52.5729C157.257 52.5729 156.549 52.868 155.958 53.4583ZM153.692 40.1416L151.673 38.5479C151.578 38.5479 151.484 38.5715 151.39 38.6187C151.295 38.666 151.201 38.6896 151.106 38.6896L158.898 46.4812L157.446 46.0916L156.525 48.3583L149.3 41.1333L145.404 40.0708L145.723 37.5562L144.979 36.8125L142.394 37.1312L141.26 32.8812L143.669 31.8896C143.716 31.7007 143.757 31.5177 143.793 31.3406C143.828 31.1635 143.881 30.9923 143.952 30.8271L142.358 28.8083L145.475 25.6916L147.494 27.2854L147.919 27.1437C148.06 27.0965 148.273 27.0493 148.556 27.0021L149.548 24.5937L153.798 25.7271L153.444 28.2771L154.187 29.0208L156.773 28.7021L157.906 32.9521L155.498 33.9437C155.451 34.1326 155.409 34.3156 155.374 34.4927C155.339 34.6698 155.285 34.841 155.215 35.0062L156.808 37.025L153.692 40.1416ZM147.458 30.7916C146.868 31.3819 146.573 32.0903 146.573 32.9166C146.573 33.743 146.868 34.4514 147.458 35.0416C148.049 35.6319 148.757 35.9271 149.583 35.9271C150.41 35.9271 151.118 35.6319 151.708 35.0416C152.299 34.4514 152.594 33.743 152.594 32.9166C152.594 32.0903 152.299 31.3819 151.708 30.7916C151.118 30.2014 150.41 29.9062 149.583 29.9062C148.757 29.9062 148.049 30.2014 147.458 30.7916ZM179.192 45.8083L177.173 44.2146L176.748 44.3562C176.606 44.4035 176.394 44.4507 176.11 44.4979L175.119 46.9062L170.869 45.7729L171.223 43.2229L170.479 42.4791L167.929 42.8333L166.76 38.5479L169.169 37.5562C169.192 37.4382 169.21 37.3614 169.222 37.326L169.487 36.5291L156.454 38.7958L158.154 37.0958L157.021 35.6791L168.744 33.5896L170.975 31.3583L172.994 32.9521L173.206 32.8812L173.419 32.8104C173.49 32.7868 173.584 32.7632 173.702 32.7396L174.056 32.6687L175.048 30.2604L179.298 31.3937L178.944 33.9437L179.687 34.6875L182.273 34.3687L183.406 38.6187L180.998 39.6104C180.951 39.7993 180.909 39.9823 180.874 40.1594C180.839 40.3364 180.785 40.5076 180.715 40.6729L182.308 42.6916L179.192 45.8083ZM172.958 36.4583C172.368 37.0486 172.073 37.7569 172.073 38.5833C172.073 39.4097 172.368 40.118 172.958 40.7083C173.549 41.2986 174.257 41.5937 175.083 41.5937C175.91 41.5937 176.618 41.2986 177.208 40.7083C177.799 40.118 178.094 39.4097 178.094 38.5833C178.094 37.7569 177.799 37.0486 177.208 36.4583C176.618 35.868 175.91 35.5729 175.083 35.5729C174.257 35.5729 173.549 35.868 172.958 36.4583Z" fill="white"></path></g><defs><clipPath id="clip0_400_80"><rect width="48.0833" height="48.0833" fill="white" transform="translate(125.5 40) rotate(-45)"></rect></clipPath></defs></svg> 