<?xml version="1.0" encoding="UTF-8"?> <svg xmlns="http://www.w3.org/2000/svg" width="321" height="82" viewBox="0 0 321 82" fill="none"><line x1="0.5" y1="41" x2="320.5" y2="41" stroke="white"></line><rect x="134" y="41" width="38.8909" height="38.8909" rx="4" transform="rotate(-45 134 41)" fill="white"></rect><path d="M161.208 48.25H163.792V46.9583H165.083C165.449 46.9583 165.756 46.8345 166.004 46.587C166.251 46.3394 166.375 46.0326 166.375 45.6666V41.7916C166.375 41.4257 166.251 41.1189 166.004 40.8713C165.756 40.6238 165.449 40.5 165.083 40.5H161.208V39.2083H166.375V36.625H163.792V35.3333H161.208V36.625H159.917C159.551 36.625 159.244 36.7488 158.996 36.9963C158.749 37.2439 158.625 37.5507 158.625 37.9166V41.7916C158.625 42.1576 158.749 42.4644 158.996 42.712C159.244 42.9595 159.551 43.0833 159.917 43.0833H163.792V44.375H158.625V46.9583H161.208V48.25ZM154.75 53.4166C154.04 53.4166 153.431 53.1637 152.926 52.6578C152.42 52.1519 152.167 51.5437 152.167 50.8333V30.1666C152.167 29.4562 152.42 28.8481 152.926 28.3422C153.431 27.8363 154.04 27.5833 154.75 27.5833H165.083L172.833 35.3333V50.8333C172.833 51.5437 172.58 52.1519 172.074 52.6578C171.569 53.1637 170.96 53.4166 170.25 53.4166H154.75Z" fill="#7CA02F"></path></svg> 