<?xml version="1.0" encoding="UTF-8"?> <svg xmlns="http://www.w3.org/2000/svg" width="43" height="44" viewBox="0 0 43 44" fill="none"><rect y="22.3379" width="30.4056" height="30.4056" rx="4" transform="rotate(-45 0 22.3379)" fill="#444444"></rect><path d="M14 24.8379V22.8379H21V24.8379H14ZM14 20.8379V18.8379H25V20.8379H14ZM14 16.8379V14.8379H25V16.8379H14ZM23 30.8379V27.7629L28.525 22.2629C28.675 22.1129 28.8417 22.0046 29.025 21.9379C29.2083 21.8712 29.3917 21.8379 29.575 21.8379C29.775 21.8379 29.9667 21.8754 30.15 21.9504C30.3333 22.0254 30.5 22.1379 30.65 22.2879L31.575 23.2129C31.7083 23.3629 31.8125 23.5296 31.8875 23.7129C31.9625 23.8962 32 24.0796 32 24.2629C32 24.4462 31.9667 24.6337 31.9 24.8254C31.8333 25.0171 31.725 25.1879 31.575 25.3379L26.075 30.8379H23ZM24.5 29.3379H25.45L28.475 26.2879L28.025 25.8129L27.55 25.3629L24.5 28.3879V29.3379ZM28.025 25.8129L27.55 25.3629L28.475 26.2879L28.025 25.8129Z" fill="white"></path></svg> 