<?xml version="1.0" encoding="UTF-8"?> <svg xmlns="http://www.w3.org/2000/svg" width="55" height="56" viewBox="0 0 55 56" fill="none"><rect x="-3.05176e-05" y="28" width="38.8909" height="38.8909" rx="4" transform="rotate(-45 -3.05176e-05 28)" fill="#444444"></rect><path d="M27.2083 35.2499H29.7916V33.9583H31.0833C31.4493 33.9583 31.7561 33.8345 32.0036 33.5869C32.2512 33.3393 32.375 33.0326 32.375 32.6666V28.7916C32.375 28.4256 32.2512 28.1188 32.0036 27.8713C31.7561 27.6237 31.4493 27.4999 31.0833 27.4999H27.2083V26.2083H32.375V23.6249H29.7916V22.3333H27.2083V23.6249H25.9166C25.5507 23.6249 25.2439 23.7487 24.9963 23.9963C24.7488 24.2438 24.625 24.5506 24.625 24.9166V28.7916C24.625 29.1576 24.7488 29.4643 24.9963 29.7119C25.2439 29.9595 25.5507 30.0833 25.9166 30.0833H29.7916V31.3749H24.625V33.9583H27.2083V35.2499ZM20.75 40.4166C20.0396 40.4166 19.4314 40.1636 18.9255 39.6577C18.4196 39.1518 18.1666 38.5437 18.1666 37.8333V17.1666C18.1666 16.4562 18.4196 15.848 18.9255 15.3421C19.4314 14.8362 20.0396 14.5833 20.75 14.5833H31.0833L38.8333 22.3333V37.8333C38.8333 38.5437 38.5804 39.1518 38.0745 39.6577C37.5686 40.1636 36.9604 40.4166 36.25 40.4166H20.75Z" fill="white"></path></svg> 