<?xml version="1.0" encoding="UTF-8"?> <svg xmlns="http://www.w3.org/2000/svg" width="230" height="80.238" viewBox="0 0 230 80.238"><g id="Group_98" data-name="Group 98" transform="translate(-1656 -1043.394)"><path id="Subtraction_35" data-name="Subtraction 35" d="M22.367,44.784A22.249,22.249,0,0,1,9.861,40.96a22.459,22.459,0,0,1-8.1-9.852A22.38,22.38,0,0,1,3.82,9.872,22.431,22.431,0,0,1,13.661,1.76,22.324,22.324,0,0,1,37,5.455a26.036,26.036,0,0,0-5.144,9.582,12.012,12.012,0,1,0,0,14.71A26.037,26.037,0,0,0,37,39.328a22.262,22.262,0,0,1-14.631,5.456Z" transform="translate(1792.72 1058.539)" fill="#202020"></path><path id="Subtraction_34" data-name="Subtraction 34" d="M22.367,44.784A22.249,22.249,0,0,1,9.861,40.96a22.46,22.46,0,0,1-8.1-9.852A22.38,22.38,0,0,1,3.82,9.873,22.432,22.432,0,0,1,13.661,1.76,22.317,22.317,0,0,1,34.872,3.824a22.453,22.453,0,0,1,8.1,9.852,22.382,22.382,0,0,1-2.062,21.235,22.438,22.438,0,0,1-9.841,8.113A22.2,22.2,0,0,1,22.367,44.784Zm0-34.4a12.011,12.011,0,1,0,12,12.012A12.018,12.018,0,0,0,22.367,10.381Z" transform="translate(1738.144 1058.538)" fill="#202020"></path><path id="Prostokąt_2_kopia_3" data-name="Prostokąt 2 kopia 3" d="M574.667,1780H588.59l24.534,44.784H599.2Z" transform="translate(1104.255 -721.461)" fill="#5c7a1d"></path><path id="Prostokąt_2_kopia_4" data-name="Prostokąt 2 kopia 4" d="M654.667,1780H668.59l19.613,44.784H674.279Z" transform="translate(1048.858 -721.461)" fill="#5c7a1d"></path><rect id="Prostokąt_2_kopia_2" data-name="Prostokąt 2 kopia 2" width="13.924" height="44.784" transform="translate(1703.357 1058.539)" fill="#7ca02f"></rect><path id="Subtraction_37" data-name="Subtraction 37" d="M22.219,44.488A22.11,22.11,0,0,1,9.8,40.689,22.3,22.3,0,0,1,1.746,30.9,22.232,22.232,0,0,1,3.794,9.807,22.377,22.377,0,0,1,9.8,3.8,22.218,22.218,0,0,1,44.437,22.244a22.464,22.464,0,0,1-.385,4.152H10.8a12.14,12.14,0,0,0,22.11,1.611l8.855,4.818c-.346.639-.725,1.264-1.125,1.856a22.288,22.288,0,0,1-9.775,8.059A22.051,22.051,0,0,1,22.219,44.488Zm0-34.4A12.194,12.194,0,0,0,10.8,18.092H33.635A12.193,12.193,0,0,0,22.219,10.084Z" transform="translate(1827.381 1058.538)" fill="#202020"></path><g id="Group_9" data-name="Group 9" transform="translate(1723.337 1058.538)"><path id="Prostokąt_2_kopia_5" data-name="Prostokąt 2 kopia 5" d="M768,1780H754.035l-18.025,44.784h13.964Z" transform="translate(-736.01 -1780)" fill="#7ca02f"></path><path id="Subtraction_43" data-name="Subtraction 43" d="M6.515,4.152H0A6.523,6.523,0,0,0,6.137,0h.378V4.152Z" transform="translate(36.112 4.152) rotate(180)" fill="#7ca02f"></path></g><g id="Group_11" data-name="Group 11" transform="translate(1656 1058.538)"><rect id="Prostokąt_2" data-name="Prostokąt 2" width="13.924" height="44.784" transform="translate(4.444 0)" fill="#7ca02f"></rect><path id="Subtraction_38" data-name="Subtraction 38" d="M4.443,4.375A4.466,4.466,0,0,0,0,0H4.444V4.375Z" transform="translate(0)" fill="#7ca02f"></path><path id="Subtraction_39" data-name="Subtraction 39" d="M4.443,0A4.466,4.466,0,0,1,0,4.375H4.444V0Z" transform="translate(0 40.409)" fill="#7ca02f"></path></g><g id="Group_8" data-name="Group 8" transform="translate(1776.54 1058.538)"><rect id="Prostokąt_2-2" data-name="Prostokąt 2" width="13.924" height="44.784" transform="translate(4.444 0)" fill="#202020"></rect><path id="Subtraction_42" data-name="Subtraction 42" d="M4.443,4.375A4.466,4.466,0,0,0,0,0H4.444V4.375Z" transform="translate(0)" fill="#202020"></path><path id="Subtraction_41" data-name="Subtraction 41" d="M4.443,0A4.466,4.466,0,0,1,0,4.375H4.444V0Z" transform="translate(0 40.409)" fill="#202020"></path></g><g id="Group_10" data-name="Group 10" transform="translate(1674.576 1058.539)"><rect id="Prostokąt_2_kopia" data-name="Prostokąt 2 kopia" width="13.924" height="44.784" transform="translate(4.444)" fill="#7ca02f"></rect><path id="Subtraction_40" data-name="Subtraction 40" d="M4.443,0A4.466,4.466,0,0,1,0,4.375H4.444V0Z" transform="translate(0 40.409)" fill="#7ca02f"></path></g><path id="Path_173" data-name="Path 173" d="M-115.331-32.677a8.074,8.074,0,0,0,6.564-2.878l-2.748-2.486a4.512,4.512,0,0,1-3.6,1.788,4.093,4.093,0,0,1-4.252-4.361,4.093,4.093,0,0,1,4.252-4.361,4.512,4.512,0,0,1,3.6,1.788l2.748-2.486a8.074,8.074,0,0,0-6.564-2.878c-4.841,0-8.4,3.293-8.4,7.937S-120.172-32.677-115.331-32.677Zm18.993-.305h4.492l-6.76-15.264h-4.252L-109.6-32.982h4.4l1.2-2.966h6.455Zm-6.389-6.149,1.963-4.885,1.963,4.885Zm11.448,6.149h7.218c5.059,0,8.526-2.944,8.526-7.632S-79-48.247-84.061-48.247h-7.218Zm4.318-3.445V-44.8h2.726c2.595,0,4.339,1.548,4.339,4.187s-1.744,4.187-4.339,4.187Zm13.04,3.445H-66.7c5.059,0,8.526-2.944,8.526-7.632s-3.467-7.632-8.526-7.632h-7.218Zm4.318-3.445V-44.8h2.726c2.595,0,4.339,1.548,4.339,4.187s-1.744,4.187-4.339,4.187ZM-43.2-48.247h-4.187L-51-42.185l-3.62-6.062H-59.18l5.822,9.726v5.539h4.318v-5.473Z" transform="translate(1915.534 1156.309)" fill="#202020"></path><path id="Path_76" data-name="Path 76" d="M7.091,0A7.091,7.091,0,1,1,0,7.091,7.091,7.091,0,0,1,7.091,0Z" transform="translate(1660.031 1043.394)" fill="#7ca02f"></path><path id="Path_172" data-name="Path 172" d="M7.091,0A7.091,7.091,0,1,1,0,7.091,7.091,7.091,0,0,1,7.091,0Z" transform="translate(1780.927 1043.394)" fill="#202020"></path><g id="RegisteredTM" transform="translate(1871.818 1043.394)"><path id="Ellipse_239" data-name="Ellipse 239" d="M-2.909-10A7.1,7.1,0,0,1,4.182-2.909,7.1,7.1,0,0,1-2.909,4.182,7.1,7.1,0,0,1-10-2.909,7.1,7.1,0,0,1-2.909-10Zm0,12.742A5.658,5.658,0,0,0,2.742-2.909,5.658,5.658,0,0,0-2.909-8.56,5.658,5.658,0,0,0-8.56-2.909,5.658,5.658,0,0,0-2.909,2.742Z" transform="translate(10 10)" fill="#202020"></path><path id="Path_226" data-name="Path 226" d="M59.521,49.5a1.3,1.3,0,0,0,.857-.23,1.135,1.135,0,0,0,0-1.461,1.346,1.346,0,0,0-.857-.216h-.806V49.5h.806m-.806,1.317v2.808H56.8V46.2h2.923a3.669,3.669,0,0,1,2.145.5,1.764,1.764,0,0,1,.684,1.555,1.959,1.959,0,0,1-.353,1.209,2.039,2.039,0,0,1-1.073.691,1.475,1.475,0,0,1,.706.41,3.542,3.542,0,0,1,.626.957l1.044,2.1H61.465l-.907-1.843A1.986,1.986,0,0,0,60,51.023a1.247,1.247,0,0,0-.749-.209h-.54" transform="translate(-52.819 -42.982)" fill="#202020"></path></g></g></svg> 