<?xml version="1.0" encoding="UTF-8"?> <svg xmlns="http://www.w3.org/2000/svg" id="logo" width="717.23" height="250.212" viewBox="0 0 717.23 250.212"><path id="Subtraction_35" data-name="Subtraction 35" d="M69.748,139.654a69.382,69.382,0,0,1-39-11.925A70.035,70.035,0,0,1,5.48,97.007a69.79,69.79,0,0,1,6.431-66.221A69.948,69.948,0,0,1,42.6,5.487,69.616,69.616,0,0,1,115.371,17.01,81.19,81.19,0,0,0,99.33,46.892a37.458,37.458,0,1,0,0,45.87,81.193,81.193,0,0,0,16.044,29.879,69.421,69.421,0,0,1-45.626,17.012Z" transform="translate(426.346 47.229)" fill="#202020"></path><path id="Subtraction_34" data-name="Subtraction 34" d="M69.748,139.655a69.381,69.381,0,0,1-39-11.926A70.038,70.038,0,0,1,5.48,97.008a69.791,69.791,0,0,1,6.431-66.221A69.95,69.95,0,0,1,42.6,5.488a69.593,69.593,0,0,1,66.145,6.438,70.017,70.017,0,0,1,25.271,30.723,69.8,69.8,0,0,1-6.431,66.22,69.97,69.97,0,0,1-30.688,25.3A69.235,69.235,0,0,1,69.748,139.655Zm0-107.283a37.456,37.456,0,1,0,37.415,37.457A37.478,37.478,0,0,0,69.748,32.372Z" transform="translate(256.156 47.226)" fill="#202020"></path><path id="Prostokąt_2_kopia_3" data-name="Prostokąt 2 kopia 3" d="M574.667,1780h43.419l76.507,139.653H651.173Z" transform="translate(-503.188 -1732.772)" fill="#5c7a1d"></path><path id="Prostokąt_2_kopia_4" data-name="Prostokąt 2 kopia 4" d="M654.666,1780h43.419l61.16,139.653H715.827Z" transform="translate(-506.468 -1732.772)" fill="#5c7a1d"></path><rect id="Prostokąt_2_kopia_2" data-name="Prostokąt 2 kopia 2" width="43.419" height="139.653" transform="translate(147.677 47.228)" fill="#7ca02f"></rect><path id="Subtraction_37" data-name="Subtraction 37" d="M69.288,138.732a68.949,68.949,0,0,1-38.741-11.847,69.547,69.547,0,0,1-25.1-30.519,69.327,69.327,0,0,1,6.388-65.782A69.78,69.78,0,0,1,30.547,11.847,69.285,69.285,0,0,1,138.572,69.366a70.052,70.052,0,0,1-1.2,12.947H33.683a37.857,37.857,0,0,0,68.947,5.023l27.614,15.024c-1.079,1.994-2.261,3.941-3.507,5.789A69.5,69.5,0,0,1,96.256,133.28,68.764,68.764,0,0,1,69.288,138.732Zm0-107.285a38.027,38.027,0,0,0-35.6,24.972h71.2A38.023,38.023,0,0,0,69.288,31.447Z" transform="translate(534.433 47.227)" fill="#202020"></path><g id="Group_9" data-name="Group 9" transform="translate(209.983 47.226)"><path id="Prostokąt_2_kopia_5" data-name="Prostokąt 2 kopia 5" d="M835.762,1780H792.218L736.01,1919.653h43.545Z" transform="translate(-736.01 -1779.998)" fill="#7ca02f"></path><path id="Subtraction_43" data-name="Subtraction 43" d="M20.317,12.948H0A20.34,20.34,0,0,0,19.138,0h1.179V12.947Z" transform="translate(112.611 12.948) rotate(180)" fill="#7ca02f"></path></g><g id="Group_11" data-name="Group 11" transform="translate(0 47.227)"><rect id="Prostokąt_2" data-name="Prostokąt 2" width="43.419" height="139.653" transform="translate(13.858 0)" fill="#7ca02f"></rect><path id="Subtraction_38" data-name="Subtraction 38" d="M13.856,13.644A13.926,13.926,0,0,0,0,0H13.858V13.644Z" transform="translate(0)" fill="#7ca02f"></path><path id="Subtraction_39" data-name="Subtraction 39" d="M13.856,0A13.926,13.926,0,0,1,0,13.644H13.858V0Z" transform="translate(0 126.012)" fill="#7ca02f"></path></g><g id="Group_8" data-name="Group 8" transform="translate(375.891 47.227)"><rect id="Prostokąt_2-2" data-name="Prostokąt 2" width="43.419" height="139.653" transform="translate(13.859 0)" fill="#202020"></rect><path id="Subtraction_42" data-name="Subtraction 42" d="M13.856,13.644A13.926,13.926,0,0,0,0,0H13.858V13.644Z" transform="translate(0.001)" fill="#202020"></path><path id="Subtraction_41" data-name="Subtraction 41" d="M13.856,0A13.926,13.926,0,0,1,0,13.644H13.858V0Z" transform="translate(0 126.012)" fill="#202020"></path></g><g id="Group_10" data-name="Group 10" transform="translate(57.928 47.228)"><rect id="Prostokąt_2_kopia" data-name="Prostokąt 2 kopia" width="43.419" height="139.653" transform="translate(13.858)" fill="#7ca02f"></rect><path id="Subtraction_40" data-name="Subtraction 40" d="M13.856,0A13.926,13.926,0,0,1,0,13.644H13.858V0Z" transform="translate(0 126.012)" fill="#7ca02f"></path></g><path id="Path_173" data-name="Path 173" d="M-97.546.952c8.772,0,15.844-3.2,20.468-8.976l-8.568-7.752A14.071,14.071,0,0,1-96.866-10.2c-7.82,0-13.26-5.44-13.26-13.6s5.44-13.6,13.26-13.6a14.071,14.071,0,0,1,11.22,5.576l8.568-7.752c-4.624-5.78-11.7-8.976-20.468-8.976-15.1,0-26.18,10.268-26.18,24.752S-112.642.952-97.546.952ZM-38.318,0H-24.31L-45.39-47.6H-58.65L-79.662,0h13.736l3.74-9.248h20.128ZM-58.242-19.176l6.12-15.232L-46-19.176ZM-22.542,0H-.034C15.742,0,26.554-9.18,26.554-23.8S15.742-47.6-.034-47.6H-22.542ZM-9.078-10.744V-36.856h8.5c8.092,0,13.532,4.828,13.532,13.056S7.514-10.744-.578-10.744ZM31.586,0H54.094C69.87,0,80.682-9.18,80.682-23.8S69.87-47.6,54.094-47.6H31.586ZM45.05-10.744V-36.856h8.5c8.092,0,13.532,4.828,13.532,13.056S61.642-10.744,53.55-10.744ZM127.4-47.6H114.342L103.054-28.7,91.766-47.6H77.554L95.71-17.272V0h13.464V-17.068Z" transform="translate(547.228 249.26)" fill="#202020"></path><path id="Path_76" data-name="Path 76" d="M22.113,0A22.113,22.113,0,1,1,0,22.113,22.113,22.113,0,0,1,22.113,0Z" transform="translate(12.571 0)" fill="#7ca02f"></path><path id="Path_172" data-name="Path 172" d="M22.113,0A22.113,22.113,0,1,1,0,22.113,22.113,22.113,0,0,1,22.113,0Z" transform="translate(389.571 0)" fill="#202020"></path><g id="RegisteredTM" transform="translate(671.505 -1.5)"><path id="Ellipse_239" data-name="Ellipse 239" d="M12.113-10A22.113,22.113,0,1,1-10,12.113,22.138,22.138,0,0,1,12.113-10Zm0,39.736A17.623,17.623,0,1,0-5.51,12.113,17.643,17.643,0,0,0,12.113,29.736Z" transform="translate(11.5 11.5)" fill="#202020"></path><path id="Path_226" data-name="Path 226" d="M65.286,56.482a4.047,4.047,0,0,0,2.672-.718,3.541,3.541,0,0,0,0-4.557,4.2,4.2,0,0,0-2.672-.673H62.772v5.949h2.514M62.772,60.59v8.755H56.8V46.2h9.115c3.053,0,5.276.516,6.69,1.549A5.5,5.5,0,0,1,74.737,52.6a6.11,6.11,0,0,1-1.1,3.772,6.359,6.359,0,0,1-3.345,2.155,4.6,4.6,0,0,1,2.2,1.28,11.044,11.044,0,0,1,1.953,2.986L77.7,69.345H71.347L68.519,63.6a6.192,6.192,0,0,0-1.729-2.357,3.889,3.889,0,0,0-2.335-.651H62.772" transform="translate(-42.885 -34.665)" fill="#202020"></path></g></svg> 