<?xml version="1.0" encoding="UTF-8"?> <svg xmlns="http://www.w3.org/2000/svg" width="55" height="56" viewBox="0 0 55 56" fill="none"><rect x="-0.00012207" y="28" width="38.8909" height="38.8909" rx="4" transform="rotate(-45 -0.00012207 28)" fill="#444444"></rect><path d="M31.3332 28.5H33.6665V27.3H34.8332C35.1638 27.3 35.4409 27.185 35.6645 26.955C35.8881 26.725 35.9999 26.44 35.9999 26.1V22.5C35.9999 22.16 35.8881 21.875 35.6645 21.645C35.4409 21.415 35.1638 21.3 34.8332 21.3H31.3332V20.1H35.9999V17.7H33.6665V16.5H31.3332V17.7H30.1665C29.836 17.7 29.5589 17.815 29.3353 18.045C29.1117 18.275 28.9999 18.56 28.9999 18.9V22.5C28.9999 22.84 29.1117 23.125 29.3353 23.355C29.5589 23.585 29.836 23.7 30.1665 23.7H33.6665V24.9H28.9999V27.3H31.3332V28.5Z" fill="white"></path><path d="M22.9999 36.525V27.5H24.5999C24.7165 27.5 24.8332 27.5125 24.9499 27.5375C25.0665 27.5625 25.1832 27.5917 25.2999 27.625L32.2249 30.2C32.4582 30.2833 32.6457 30.4333 32.7874 30.65C32.929 30.8667 32.9999 31.0917 32.9999 31.325C32.9999 31.675 32.879 31.9583 32.6374 32.175C32.3957 32.3917 32.1165 32.5 31.7999 32.5H29.1749C29.0915 32.5 29.029 32.4958 28.9874 32.4875C28.9457 32.4792 28.8915 32.4583 28.8249 32.425L27.2249 31.8L26.8999 32.775L28.8249 33.45C28.8582 33.4667 28.9082 33.4792 28.9749 33.4875C29.0415 33.4958 29.0999 33.5 29.1499 33.5H35.9999C36.5332 33.5 36.9999 33.6917 37.3999 34.075C37.7999 34.4583 37.9999 34.9333 37.9999 35.5L30.0249 38.5L22.9999 36.525ZM16.9999 38.5V27.5H20.9999V38.5H16.9999Z" fill="white"></path></svg> 