<?xml version="1.0" encoding="UTF-8"?> <svg xmlns="http://www.w3.org/2000/svg" width="184" height="35" viewBox="0 0 184 35" fill="none"><g clip-path="url(#clip0_89_80)"><path d="M183.093 26.5517C183.093 26.2069 182.744 26.069 182.429 26.069H181.836V27.7931H182.15V27.1034H182.394L182.778 27.7931H183.162L182.709 27.0345C182.816 27.0179 182.915 26.9634 182.985 26.8811C183.056 26.7988 183.094 26.6941 183.093 26.5862V26.5517ZM182.15 26.8276V26.3448H182.429C182.604 26.3448 182.778 26.3793 182.778 26.5862C182.778 26.7931 182.569 26.8276 182.394 26.8276H182.15ZM182.429 25.4483C182.126 25.4552 181.831 25.5509 181.582 25.7232C181.334 25.8956 181.143 26.1369 181.033 26.4167C180.923 26.6964 180.9 27.0021 180.966 27.2949C181.032 27.5878 181.184 27.8548 181.404 28.0621C181.623 28.2694 181.9 28.4077 182.199 28.4595C182.498 28.5114 182.806 28.4744 183.084 28.3534C183.362 28.2323 183.597 28.0326 183.76 27.7794C183.923 27.5262 184.007 27.231 184 26.931C184 26.7289 183.959 26.5287 183.88 26.3423C183.8 26.156 183.684 25.9872 183.538 25.8458C183.392 25.7045 183.218 25.5934 183.028 25.5192C182.837 25.445 182.634 25.4092 182.429 25.4138V25.4483ZM182.429 28.2069C182.166 28.2068 181.908 28.129 181.689 27.9834C181.47 27.8379 181.3 27.6312 181.201 27.3897C181.102 27.1483 181.078 26.883 181.132 26.628C181.186 26.3729 181.316 26.1395 181.505 25.9577C181.694 25.7759 181.933 25.6539 182.193 25.6073C182.452 25.5607 182.72 25.5916 182.962 25.6961C183.203 25.8006 183.408 25.9739 183.549 26.1939C183.691 26.4139 183.763 26.6705 183.756 26.931C183.756 27.2786 183.616 27.6118 183.367 27.8576C183.118 28.1033 182.781 28.2414 182.429 28.2414V28.2069ZM82.6115 25.6897C80.3429 25.6897 79.1912 23.6552 79.1912 21.7241C79.1912 19.7931 80.4476 17.8621 82.5068 17.8621C83.484 17.8621 84.7056 18.3448 85.1942 19.0345L87.5675 16.6552C86.8971 16.0159 86.1039 15.5157 85.2348 15.184C84.3656 14.8524 83.4381 14.696 82.5068 14.7241C78.3186 14.7241 75.2822 17.6897 75.2822 21.7586C75.2822 25.8966 78.2837 28.8276 82.6115 28.8276C84.6358 28.8276 86.5205 28.2414 87.6373 27.0345L85.2989 24.5517C84.9515 24.9102 84.5344 25.1958 84.0726 25.3913C83.6108 25.5869 83.1139 25.6883 82.6115 25.6897ZM69.1745 28.4483H72.9438V15.1034H69.2094L69.1745 28.4483ZM62.3687 22.4138C62.3687 23.9655 61.3217 25.6552 59.437 25.6552C57.9362 25.6552 57.1335 24.6207 57.1335 22.4483V15.1379H53.3991V23.4138C53.3991 26.1724 54.7951 28.8621 58.5296 28.8621C60.2746 28.8621 61.7405 27.4828 62.4734 26.4483H62.5432V28.4828H66.1032V15.1034H62.3687V22.4138ZM46.6631 16.7931H46.5933C46.0698 16.2069 44.6388 14.7241 42.3353 14.7241C38.5311 14.7241 35.5994 17.6552 35.5994 21.7241C35.5994 25.8621 38.3217 28.8276 42.1608 28.8276C42.982 28.8026 43.7893 28.6124 44.5334 28.2685C45.2776 27.9246 45.9429 27.4343 46.4886 26.8276H46.5584V35H50.2579V15.1034H46.698L46.6631 16.7931ZM43.0683 25.6897C40.7648 25.6897 39.4385 23.6897 39.4385 21.7241C39.4385 19.8276 40.6252 17.8276 43.0683 17.8276C45.267 17.8276 46.6282 19.8966 46.6282 21.7586C46.6282 23.6207 45.3019 25.6897 43.0683 25.6897ZM127.983 14.7241C123.76 14.7241 120.654 17.6552 120.654 21.7241C120.654 25.931 123.795 28.8621 127.983 28.8621C132.171 28.8621 135.313 25.8966 135.313 21.7241C135.313 17.6552 132.241 14.7241 127.983 14.7241ZM127.983 25.6897C125.54 25.6897 124.458 23.6207 124.458 21.7241C124.458 19.8276 125.575 17.8276 127.983 17.8276C130.391 17.8276 131.578 19.8276 131.578 21.7241C131.578 23.6207 130.461 25.6897 128.018 25.6897H127.983ZM174.611 20.2414C172.692 19.7931 171.994 19.5517 171.994 18.7586C171.994 17.7241 173.39 17.4828 173.983 17.4828C175.135 17.4828 176.426 18.1724 176.95 18.7931L179.149 16.7241C178.102 15.4828 176.112 14.7586 174.018 14.7586C171.296 14.7586 168.469 16.1034 168.469 19.069C168.469 21.6552 170.528 22.4138 172.517 22.8966C174.611 23.3793 175.379 23.7241 175.379 24.5862C175.379 25.7931 173.983 26 173.46 26C172.817 25.9706 172.187 25.8152 171.606 25.5428C171.025 25.2705 170.504 24.8867 170.074 24.4138L167.806 26.6897C169.027 28.069 171.156 28.8621 173.32 28.8621C176.985 28.8621 179.149 27.1379 179.149 24.3103C179.149 21.6207 176.496 20.6897 174.611 20.2414ZM167.527 15.1034H162.71L157.894 20.6207H157.824V7.75862H154.089V28.4483H157.824V21.8966H157.894L162.885 28.4483H167.771L161.977 21.1724L167.527 15.1034ZM112.243 14.7586C110.498 14.7586 109.276 15.4483 108.055 16.5517H108.02V7.75862H104.285V28.4483H107.845V26.5517H107.915C108.374 27.2433 109.001 27.8105 109.739 28.2019C110.476 28.5934 111.301 28.7966 112.138 28.7931C115.977 28.7931 118.909 25.8276 118.909 21.7241C118.909 17.6552 116.047 14.7241 112.243 14.7241V14.7586ZM111.51 25.6897C109.241 25.6897 107.915 23.6897 107.915 21.7586C107.915 19.8276 109.311 17.8276 111.51 17.8276C113.918 17.8276 115.105 19.8276 115.105 21.7241C115.105 23.6897 113.813 25.6897 111.51 25.6897ZM102.889 15.1034H98.0728L93.2564 20.6207H93.1866V7.75862H89.4522V28.4483H93.1866V21.8966H93.2564L98.2473 28.4483H103.133L97.3748 21.1724L102.889 15.1034ZM144.352 14.7586C140.094 14.7586 137.023 17.6897 137.023 21.7241C137.023 25.931 140.164 28.8621 144.352 28.8621C148.54 28.8621 151.681 25.8966 151.681 21.7241C151.681 17.6552 148.575 14.7241 144.352 14.7241V14.7586ZM144.352 25.6897C141.909 25.6897 140.792 23.6207 140.792 21.7241C140.792 19.8276 141.909 17.8276 144.352 17.8276C146.795 17.8276 147.877 19.8276 147.877 21.7241C147.877 23.6207 146.76 25.6897 144.352 25.6897Z" fill="black"></path><path d="M15.7056 31.0345C24.3796 31.0345 31.4112 24.0872 31.4112 15.5172C31.4112 6.94731 24.3796 0 15.7056 0C7.03164 0 0 6.94731 0 15.5172C0 24.0872 7.03164 31.0345 15.7056 31.0345Z" fill="#2CA01C"></path><path d="M4.36267 15.5172C4.36267 17.1177 5.00616 18.6526 6.15159 19.7843C7.29701 20.916 8.85054 21.5517 10.4704 21.5517H11.3429V19.3104H10.4704C9.4522 19.3104 8.4757 18.9107 7.75572 18.1994C7.03574 17.488 6.63126 16.5232 6.63126 15.5172C6.63126 14.5113 7.03574 13.5465 7.75572 12.8351C8.4757 12.1238 9.4522 11.7241 10.4704 11.7241H12.5645V23.4483C12.5645 23.7426 12.6232 24.0341 12.7372 24.306C12.8512 24.578 13.0183 24.825 13.2289 25.0332C13.4396 25.2413 13.6897 25.4064 13.9649 25.519C14.2402 25.6317 14.5352 25.6897 14.8331 25.6897V9.48276H10.4704C8.85054 9.48276 7.29701 10.1185 6.15159 11.2502C5.00616 12.3819 4.36267 13.9168 4.36267 15.5172ZM20.9408 9.48276H20.0683V11.7241H20.9408C21.959 11.7241 22.9355 12.1238 23.6555 12.8351C24.3755 13.5465 24.78 14.5113 24.78 15.5172C24.78 16.5232 24.3755 17.488 23.6555 18.1994C22.9355 18.9107 21.959 19.3104 20.9408 19.3104H18.8467V7.58621C18.8467 6.99176 18.6077 6.42166 18.1823 6.00132C17.7568 5.58098 17.1798 5.34483 16.5781 5.34483V21.5517H20.9408C21.7429 21.5517 22.5371 21.3956 23.2781 21.0924C24.0192 20.7891 24.6925 20.3446 25.2596 19.7843C25.8268 19.2239 26.2767 18.5587 26.5836 17.8265C26.8906 17.0944 27.0486 16.3097 27.0486 15.5172C27.0486 14.7248 26.8906 13.9401 26.5836 13.208C26.2767 12.4758 25.8268 11.8106 25.2596 11.2502C24.6925 10.6899 24.0192 10.2454 23.2781 9.94211C22.5371 9.63885 21.7429 9.48276 20.9408 9.48276Z" fill="white"></path><path d="M50.956 3.55172C51.1631 3.55172 51.3655 3.49105 51.5377 3.37738C51.7099 3.26371 51.8441 3.10215 51.9233 2.91312C52.0026 2.72409 52.0233 2.51609 51.9829 2.31542C51.9425 2.11475 51.8428 1.93042 51.6964 1.78575C51.5499 1.64107 51.3634 1.54255 51.1603 1.50263C50.9572 1.46272 50.7466 1.4832 50.5553 1.5615C50.364 1.6398 50.2005 1.77239 50.0854 1.94251C49.9704 2.11263 49.909 2.31264 49.909 2.51724C49.909 2.7916 50.0193 3.05473 50.2156 3.24873C50.412 3.44273 50.6783 3.55172 50.956 3.55172ZM44.7785 4.24138C44.3439 4.24079 43.9178 4.35986 43.5479 4.58522C43.178 4.81059 42.879 5.13333 42.6844 5.51724H42.6146V4.41379H41.0091V11.2069H42.7193V7.48276C42.7193 6.5862 43.2428 5.65517 44.3247 5.65517C45.4067 5.65517 45.6161 6.65517 45.6161 7.44827V11.2414H47.3263V6.93103C47.3263 5.55172 46.5933 4.17241 44.7785 4.17241V4.24138ZM37.519 11.2069H39.2641V4.41379H37.519V11.2069ZM68.7557 3.51724C68.9628 3.51724 69.1652 3.45657 69.3374 3.3429C69.5096 3.22923 69.6438 3.06766 69.723 2.87864C69.8023 2.68961 69.823 2.48161 69.7826 2.28094C69.7422 2.08027 69.6425 1.89594 69.4961 1.75127C69.3496 1.60659 69.1631 1.50807 68.96 1.46815C68.7569 1.42823 68.5463 1.44872 68.355 1.52702C68.1637 1.60532 68.0002 1.73791 67.8851 1.90803C67.7701 2.07815 67.7087 2.27815 67.7087 2.48276C67.7087 2.75712 67.819 3.02024 68.0153 3.21425C68.2117 3.40825 68.478 3.51724 68.7557 3.51724ZM65.9636 4.41379V5.93103H67.8832V11.2069H69.6282V5.93103H71.5478V4.41379H65.9636ZM63.0319 11.2069H64.7769V4.41379H63.0319V11.2069ZM48.1988 5.93103H50.1184V11.2069H51.8634V5.93103H53.783V4.41379H48.1988V5.93103ZM59.5766 8.17241C59.5766 9.06896 59.0531 10 57.9712 10C56.8892 10 56.6798 8.96551 56.6798 8.17241V4.41379H54.9348V8.65517C54.9348 10.0345 55.7026 11.4138 57.4826 11.4138C57.923 11.4209 58.3566 11.3048 58.7332 11.0791C59.1099 10.8534 59.4144 10.5271 59.6115 10.1379H59.6464V11.2414H61.2868V4.41379H59.5417V8.13793L59.5766 8.17241Z" fill="black"></path></g><defs><clipPath id="clip0_89_80"><rect width="184" height="35" fill="white"></rect></clipPath></defs></svg> 