<?xml version="1.0" encoding="UTF-8"?> <svg xmlns="http://www.w3.org/2000/svg" width="55" height="56" viewBox="0 0 55 56" fill="none"><rect x="-6.10352e-05" y="28" width="38.8909" height="38.8909" rx="4" transform="rotate(-45 -6.10352e-05 28)" fill="#444444"></rect><path d="M27.9999 27.5C29.0999 27.5 30.0416 27.1083 30.8249 26.325C31.6083 25.5417 31.9999 24.6 31.9999 23.5V20.5H23.9999V23.5C23.9999 24.6 24.3916 25.5417 25.1749 26.325C25.9583 27.1083 26.8999 27.5 27.9999 27.5ZM19.9999 38.5V36.5H21.9999V33.5C21.9999 32.4833 22.2374 31.5292 22.7124 30.6375C23.1874 29.7458 23.8499 29.0333 24.6999 28.5C23.8499 27.9667 23.1874 27.2542 22.7124 26.3625C22.2374 25.4708 21.9999 24.5167 21.9999 23.5V20.5H19.9999V18.5H35.9999V20.5H33.9999V23.5C33.9999 24.5167 33.7624 25.4708 33.2874 26.3625C32.8124 27.2542 32.1499 27.9667 31.2999 28.5C32.1499 29.0333 32.8124 29.7458 33.2874 30.6375C33.7624 31.5292 33.9999 32.4833 33.9999 33.5V36.5H35.9999V38.5H19.9999Z" fill="white"></path></svg> 