<?xml version="1.0" encoding="UTF-8"?> <svg xmlns="http://www.w3.org/2000/svg" width="35" height="35" viewBox="0 0 35 35" fill="none"><rect x="0.411499" y="17.5789" width="24.0416" height="24.0416" rx="4" transform="rotate(-45 0.411499 17.5789)" fill="#444444"></rect><path d="M23.1001 23.9667C21.7129 23.9667 20.3425 23.6643 18.9886 23.0595C17.6348 22.4547 16.403 21.5975 15.2933 20.4878C14.1836 19.3781 13.3264 18.1463 12.7216 16.7925C12.1168 15.4386 11.8144 14.0681 11.8144 12.681C11.8144 12.4813 11.881 12.3148 12.0141 12.1816C12.1473 12.0485 12.3138 11.9819 12.5135 11.9819H15.2101C15.3654 11.9819 15.5042 12.0346 15.6262 12.14C15.7483 12.2455 15.8204 12.3703 15.8426 12.5146L16.2754 14.8449C16.2976 15.0225 16.292 15.1723 16.2587 15.2944C16.2255 15.4164 16.1644 15.5219 16.0756 15.6106L14.461 17.2419C14.683 17.6525 14.9465 18.0492 15.2517 18.432C15.5569 18.8149 15.8925 19.1839 16.2587 19.539C16.6028 19.883 16.9634 20.202 17.3407 20.4961C17.718 20.7902 18.1175 21.0593 18.5392 21.3034L20.1039 19.7387C20.2037 19.6388 20.3341 19.5639 20.495 19.514C20.6559 19.4641 20.8141 19.4502 20.9694 19.4724L23.2665 19.9385C23.4219 19.9829 23.5495 20.0633 23.6494 20.1798C23.7492 20.2963 23.7992 20.4267 23.7992 20.571V23.2676C23.7992 23.4673 23.7326 23.6338 23.5994 23.7669C23.4663 23.9001 23.2998 23.9667 23.1001 23.9667ZM13.8285 15.9768L14.9271 14.8782L14.6441 13.3135H13.1627C13.2182 13.7685 13.2958 14.218 13.3957 14.6618C13.4956 15.1057 13.6399 15.544 13.8285 15.9768ZM19.7876 21.9359C20.2204 22.1246 20.6615 22.2744 21.1109 22.3854C21.5603 22.4963 22.0126 22.5685 22.4675 22.6017V21.1369L20.9028 20.8207L19.7876 21.9359Z" fill="white"></path></svg> 